<svg xmlns="http://www.w3.org/2000/svg" width="111" height="29" viewBox="0 0 443 117">
  <defs>
    <style>
      .cls-1 {
        fill: #8d2943;
      }

      .cls-2 {
        fill: #fff;
        stroke: #8d2943;
        stroke-linejoin: round;
        stroke-width: 2.21px;
      }

      .cls-2, .cls-3 {
        fill-rule: evenodd;
      }
    </style>
  </defs>
  <circle id="楕円形_1" data-name="楕円形 1" class="cls-1" cx="70.5" cy="57.5" r="33.5"/>
  <path id="シェイプ_1" data-name="シェイプ 1" class="cls-2" d="M52,75L68,98A25.767,25.767,0,0,1,90,87c13.334,0.149,21,10,21,10l16-22S115.741,59.479,89,59,52,75,52,75Z"/>
  <path id="長崎" class="cls-3" d="M185.968,22.368a3.334,3.334,0,0,0-2.889-1.222q-3.891,0-3.889,3.444a129.182,129.182,0,0,1,1.778,18.778q0,7.224-.445,14.222a8,8,0,0,0,.112,1.333H160.968a7.883,7.883,0,0,0-4.111.889,4.907,4.907,0,0,0-2,3q0.333,3.333,4,3.444a68.369,68.369,0,0,0,7.222-.778q4-.443,10.222-0.556a118.827,118.827,0,0,1,.778,12.778,89.215,89.215,0,0,1-.667,12,4.168,4.168,0,0,1-1.555,2.667q-3,1.891-3,3.444,0.109,3.224,3.889,3.444a7.669,7.669,0,0,0,2.444-.778,203.682,203.682,0,0,1,22.333-10.111,13.865,13.865,0,0,0,2-1.445,5.916,5.916,0,0,0,1-2.444,1.524,1.524,0,0,0-1.777-1.667,18.806,18.806,0,0,0-4.889,1.111q-7.446,2.333-13.334,4.445c-0.519,0-.777-0.111-0.777-0.333q0.775-7.776.777-22.667V64.7q6.222-.109,14.334-0.111,14.667,0,27,.222,12,0.557,15.111.556a5.05,5.05,0,0,0,3.889-1.556,5.307,5.307,0,0,0,1.333-3.556,1.412,1.412,0,0,0-1.667-1.333H186.968a25.965,25.965,0,0,0,.444-5.222V52.368q11.444-.888,31.778-0.889,3,0,3-2.111,0-2.667-3-2.667H188.3a3.7,3.7,0,0,0-.889.111V40.7q11.444-.888,31.778-0.889,3,0,3-2.222,0-2.555-3-2.556H187.3q-0.111-3.555-.333-6.111a19.755,19.755,0,0,0,3-.778,85.372,85.372,0,0,1,14.667-.889q6.108,0,11.222.333a50.243,50.243,0,0,0,6.333.889,5.273,5.273,0,0,0,3.889-1.556,5.452,5.452,0,0,0,1.333-3.667q-0.111-1.221-1.777-1.222H188.746a10.56,10.56,0,0,0-2.778.333h0ZM221.746,65.7q-7.334,4.445-20.667,9.444-1.89.557-1.889,2,0,2.112,3,2.111,1.221,0,7.889-2.111c0.295-.073.556-0.147,0.778-0.222a1.5,1.5,0,0,0,.778.333,44.006,44.006,0,0,1,6.888,4.333,202.6,202.6,0,0,1,16.223,14.222,8.153,8.153,0,0,0,5.222,2.111,14.312,14.312,0,0,0,7.889-2.444q3.888-2.443,3.889-4.889,0-1.776-2.223-1.778A45.145,45.145,0,0,1,242.19,87.7q-4.779-1.443-24.222-13a0.1,0.1,0,0,0-.111-0.111q4.109-1.443,7-2.667,2.554-1.109,2.555-3,0-3.888-3.889-3.889a4.428,4.428,0,0,0-1.777.667h0Zm40.777-24.556q1.333,14.779,1.334,22,0,5.333-.445,11,0,3.891,3.445,3.889a45.923,45.923,0,0,1,12.666-1.778q8.667,0,13,.445,3,0,3-3.445,0-3.221-.444-13.333,0-8.333.889-18.333,0-4-3-4-3.558,0-3.556,5.667,0,17.112.445,26.111,0,1.667-2.111,1.667-2.779-.221-5.223-0.333l0.445-47q0-3.443-3.889-3.444-3.558,0-3.556,3.444l1.223,47a45.456,45.456,0,0,0-5.111.778,1.524,1.524,0,0,1-1.667-1.778q0-21.333-.445-28.111-0.333-3.109-3.888-3.111-3.112,0-3.112,2.667h0ZM305.968,28.59a4.763,4.763,0,0,0-1.778,3q0.333,2.891,3.556,3a17.481,17.481,0,0,0,3.333-.778,68.245,68.245,0,0,1,11.667-.889q-0.445,1.224-1,2.444a13.588,13.588,0,0,1-7.667,6.556,27.926,27.926,0,0,1-7.333,1.778q-1.666.112-1.667,0.889a5.966,5.966,0,0,0,2.222,4.222,4,4,0,0,0,3,1.444q4.11,0,9-4a22.668,22.668,0,0,0,6.445-7.778,25.5,25.5,0,0,0,1.889-5.667q5.109,0.112,9.666.444a52.713,52.713,0,0,0,6.445.889,5.276,5.276,0,0,0,3.889-1.556,5.457,5.457,0,0,0,1.333-3.667q-0.113-1.221-1.778-1.333h-19q0.333-2.888.778-5.111,0-2.667-3-2.667a1.964,1.964,0,0,0-2.222,2.222V27.59H309.857a6.72,6.72,0,0,0-3.889,1h0Zm25.555,13q0,1.333,2.445,2.222,2.667,1,7.889,5.222a3.023,3.023,0,0,0,1.444.778q2.555,0,2.556-2.222,0-1.555-5.111-5.444-5.225-3.667-5.667-3.667-3.558,0-3.556,3.111h0ZM302.079,55.479a6.022,6.022,0,0,0-3.556,1.556,4.456,4.456,0,0,0-1.666,3.222q0.109,3.224,3,3.444a6.915,6.915,0,0,0,2.889-.889A90.834,90.834,0,0,1,314.412,58.7a69.5,69.5,0,0,1,13.223-1.111,93.552,93.552,0,0,1,12.111.667,7.364,7.364,0,0,0-.334,2.333q0,1.667.223,7.444a123.181,123.181,0,0,1,.666,12.889,23.824,23.824,0,0,1-.666,6.889,5.164,5.164,0,0,1-2.889,2.667q-2,1-8.667,1.444a1.7,1.7,0,0,0-1.667,1.667,5.471,5.471,0,0,0,2,4.222,5.9,5.9,0,0,0,4,1.444,21.1,21.1,0,0,0,7.334-1.444q6.11-2.221,6.111-10.444,0-6.667-.445-19.333a45.719,45.719,0,0,1,.445-6A9.469,9.469,0,0,0,346.3,59.7a71.423,71.423,0,0,1,7.222,2.556,7.383,7.383,0,0,0,3.667,1q1.666,0,3.333-3a12.622,12.622,0,0,0,1.445-5.667q0-1.333-.445-1.333a25.428,25.428,0,0,1-4.777.444q-6.112,0-13-.444-8.89-.888-16.111-0.889-7.558,0-25.556,3.111h0Zm2.111,13a39.989,39.989,0,0,1,.889,7.667,46.406,46.406,0,0,1-.889,8.333,2.357,2.357,0,0,0,2.667,2.667,8,8,0,0,1,2.778-.889,26.607,26.607,0,0,1,6.333-.444,69.367,69.367,0,0,1,10.444.889q2.555,0,2.556-3v-5q0-3.221.222-6.222a11.564,11.564,0,0,1,.445-3.111l0.222-.445a2.357,2.357,0,0,0-2.667-2.667,16.2,16.2,0,0,1-3.444.445,26.555,26.555,0,0,0-4.445-.445h-5.555a28.652,28.652,0,0,1-4.111-.222,18.371,18.371,0,0,0-2.778-.222,2.357,2.357,0,0,0-2.667,2.667h0Zm7.889,13.889q-2.224,0-2.222-1.778a72.781,72.781,0,0,0,.444-8.222,1.572,1.572,0,0,1,1.778-1.778,97.181,97.181,0,0,1,10.778.444,0.786,0.786,0,0,1,.889.889v9.111a1.179,1.179,0,0,1-1.334,1.333,52.614,52.614,0,0,0-6.444-.445,15.222,15.222,0,0,0-3.889.445h0Z"/>
</svg>
