<?xml version="1.0" encoding="utf-8"?>
<!DOCTYPE svg PUBLIC "-//W3C//DTD SVG 1.0//EN" "http://www.w3.org/TR/2001/REC-SVG-20010904/DTD/svg10.dtd">
<svg xmlns="http://www.w3.org/2000/svg" xml:space="preserve" xmlns:xlink="http://www.w3.org/1999/xlink" width="165" height="165" viewBox="0 0 165 165">
<desc></desc>
<rect width="165" height="165" fill="#ffffff" cx="0" cy="0" />
<defs>
<rect id="p" width="5" height="5" />
</defs>
<g fill="#000000">
<use x="10" y="10" xlink:href="#p" />
<use x="15" y="10" xlink:href="#p" />
<use x="20" y="10" xlink:href="#p" />
<use x="25" y="10" xlink:href="#p" />
<use x="30" y="10" xlink:href="#p" />
<use x="35" y="10" xlink:href="#p" />
<use x="40" y="10" xlink:href="#p" />
<use x="95" y="10" xlink:href="#p" />
<use x="110" y="10" xlink:href="#p" />
<use x="120" y="10" xlink:href="#p" />
<use x="125" y="10" xlink:href="#p" />
<use x="130" y="10" xlink:href="#p" />
<use x="135" y="10" xlink:href="#p" />
<use x="140" y="10" xlink:href="#p" />
<use x="145" y="10" xlink:href="#p" />
<use x="150" y="10" xlink:href="#p" />
<use x="10" y="15" xlink:href="#p" />
<use x="40" y="15" xlink:href="#p" />
<use x="50" y="15" xlink:href="#p" />
<use x="60" y="15" xlink:href="#p" />
<use x="70" y="15" xlink:href="#p" />
<use x="75" y="15" xlink:href="#p" />
<use x="90" y="15" xlink:href="#p" />
<use x="95" y="15" xlink:href="#p" />
<use x="105" y="15" xlink:href="#p" />
<use x="120" y="15" xlink:href="#p" />
<use x="150" y="15" xlink:href="#p" />
<use x="10" y="20" xlink:href="#p" />
<use x="20" y="20" xlink:href="#p" />
<use x="25" y="20" xlink:href="#p" />
<use x="30" y="20" xlink:href="#p" />
<use x="40" y="20" xlink:href="#p" />
<use x="55" y="20" xlink:href="#p" />
<use x="65" y="20" xlink:href="#p" />
<use x="70" y="20" xlink:href="#p" />
<use x="80" y="20" xlink:href="#p" />
<use x="90" y="20" xlink:href="#p" />
<use x="105" y="20" xlink:href="#p" />
<use x="120" y="20" xlink:href="#p" />
<use x="130" y="20" xlink:href="#p" />
<use x="135" y="20" xlink:href="#p" />
<use x="140" y="20" xlink:href="#p" />
<use x="150" y="20" xlink:href="#p" />
<use x="10" y="25" xlink:href="#p" />
<use x="20" y="25" xlink:href="#p" />
<use x="25" y="25" xlink:href="#p" />
<use x="30" y="25" xlink:href="#p" />
<use x="40" y="25" xlink:href="#p" />
<use x="50" y="25" xlink:href="#p" />
<use x="60" y="25" xlink:href="#p" />
<use x="65" y="25" xlink:href="#p" />
<use x="75" y="25" xlink:href="#p" />
<use x="90" y="25" xlink:href="#p" />
<use x="95" y="25" xlink:href="#p" />
<use x="110" y="25" xlink:href="#p" />
<use x="120" y="25" xlink:href="#p" />
<use x="130" y="25" xlink:href="#p" />
<use x="135" y="25" xlink:href="#p" />
<use x="140" y="25" xlink:href="#p" />
<use x="150" y="25" xlink:href="#p" />
<use x="10" y="30" xlink:href="#p" />
<use x="20" y="30" xlink:href="#p" />
<use x="25" y="30" xlink:href="#p" />
<use x="30" y="30" xlink:href="#p" />
<use x="40" y="30" xlink:href="#p" />
<use x="50" y="30" xlink:href="#p" />
<use x="80" y="30" xlink:href="#p" />
<use x="85" y="30" xlink:href="#p" />
<use x="100" y="30" xlink:href="#p" />
<use x="105" y="30" xlink:href="#p" />
<use x="120" y="30" xlink:href="#p" />
<use x="130" y="30" xlink:href="#p" />
<use x="135" y="30" xlink:href="#p" />
<use x="140" y="30" xlink:href="#p" />
<use x="150" y="30" xlink:href="#p" />
<use x="10" y="35" xlink:href="#p" />
<use x="40" y="35" xlink:href="#p" />
<use x="55" y="35" xlink:href="#p" />
<use x="60" y="35" xlink:href="#p" />
<use x="70" y="35" xlink:href="#p" />
<use x="80" y="35" xlink:href="#p" />
<use x="95" y="35" xlink:href="#p" />
<use x="100" y="35" xlink:href="#p" />
<use x="110" y="35" xlink:href="#p" />
<use x="120" y="35" xlink:href="#p" />
<use x="150" y="35" xlink:href="#p" />
<use x="10" y="40" xlink:href="#p" />
<use x="15" y="40" xlink:href="#p" />
<use x="20" y="40" xlink:href="#p" />
<use x="25" y="40" xlink:href="#p" />
<use x="30" y="40" xlink:href="#p" />
<use x="35" y="40" xlink:href="#p" />
<use x="40" y="40" xlink:href="#p" />
<use x="50" y="40" xlink:href="#p" />
<use x="60" y="40" xlink:href="#p" />
<use x="70" y="40" xlink:href="#p" />
<use x="80" y="40" xlink:href="#p" />
<use x="90" y="40" xlink:href="#p" />
<use x="100" y="40" xlink:href="#p" />
<use x="110" y="40" xlink:href="#p" />
<use x="120" y="40" xlink:href="#p" />
<use x="125" y="40" xlink:href="#p" />
<use x="130" y="40" xlink:href="#p" />
<use x="135" y="40" xlink:href="#p" />
<use x="140" y="40" xlink:href="#p" />
<use x="145" y="40" xlink:href="#p" />
<use x="150" y="40" xlink:href="#p" />
<use x="50" y="45" xlink:href="#p" />
<use x="70" y="45" xlink:href="#p" />
<use x="105" y="45" xlink:href="#p" />
<use x="110" y="45" xlink:href="#p" />
<use x="15" y="50" xlink:href="#p" />
<use x="25" y="50" xlink:href="#p" />
<use x="30" y="50" xlink:href="#p" />
<use x="35" y="50" xlink:href="#p" />
<use x="40" y="50" xlink:href="#p" />
<use x="50" y="50" xlink:href="#p" />
<use x="55" y="50" xlink:href="#p" />
<use x="65" y="50" xlink:href="#p" />
<use x="80" y="50" xlink:href="#p" />
<use x="85" y="50" xlink:href="#p" />
<use x="95" y="50" xlink:href="#p" />
<use x="100" y="50" xlink:href="#p" />
<use x="105" y="50" xlink:href="#p" />
<use x="110" y="50" xlink:href="#p" />
<use x="115" y="50" xlink:href="#p" />
<use x="120" y="50" xlink:href="#p" />
<use x="130" y="50" xlink:href="#p" />
<use x="135" y="50" xlink:href="#p" />
<use x="145" y="50" xlink:href="#p" />
<use x="25" y="55" xlink:href="#p" />
<use x="45" y="55" xlink:href="#p" />
<use x="70" y="55" xlink:href="#p" />
<use x="80" y="55" xlink:href="#p" />
<use x="85" y="55" xlink:href="#p" />
<use x="90" y="55" xlink:href="#p" />
<use x="100" y="55" xlink:href="#p" />
<use x="105" y="55" xlink:href="#p" />
<use x="110" y="55" xlink:href="#p" />
<use x="125" y="55" xlink:href="#p" />
<use x="130" y="55" xlink:href="#p" />
<use x="140" y="55" xlink:href="#p" />
<use x="145" y="55" xlink:href="#p" />
<use x="10" y="60" xlink:href="#p" />
<use x="15" y="60" xlink:href="#p" />
<use x="25" y="60" xlink:href="#p" />
<use x="40" y="60" xlink:href="#p" />
<use x="55" y="60" xlink:href="#p" />
<use x="60" y="60" xlink:href="#p" />
<use x="70" y="60" xlink:href="#p" />
<use x="75" y="60" xlink:href="#p" />
<use x="80" y="60" xlink:href="#p" />
<use x="95" y="60" xlink:href="#p" />
<use x="100" y="60" xlink:href="#p" />
<use x="110" y="60" xlink:href="#p" />
<use x="115" y="60" xlink:href="#p" />
<use x="120" y="60" xlink:href="#p" />
<use x="135" y="60" xlink:href="#p" />
<use x="10" y="65" xlink:href="#p" />
<use x="20" y="65" xlink:href="#p" />
<use x="30" y="65" xlink:href="#p" />
<use x="35" y="65" xlink:href="#p" />
<use x="60" y="65" xlink:href="#p" />
<use x="65" y="65" xlink:href="#p" />
<use x="70" y="65" xlink:href="#p" />
<use x="85" y="65" xlink:href="#p" />
<use x="90" y="65" xlink:href="#p" />
<use x="95" y="65" xlink:href="#p" />
<use x="110" y="65" xlink:href="#p" />
<use x="125" y="65" xlink:href="#p" />
<use x="130" y="65" xlink:href="#p" />
<use x="135" y="65" xlink:href="#p" />
<use x="150" y="65" xlink:href="#p" />
<use x="20" y="70" xlink:href="#p" />
<use x="30" y="70" xlink:href="#p" />
<use x="40" y="70" xlink:href="#p" />
<use x="45" y="70" xlink:href="#p" />
<use x="50" y="70" xlink:href="#p" />
<use x="55" y="70" xlink:href="#p" />
<use x="60" y="70" xlink:href="#p" />
<use x="65" y="70" xlink:href="#p" />
<use x="80" y="70" xlink:href="#p" />
<use x="85" y="70" xlink:href="#p" />
<use x="105" y="70" xlink:href="#p" />
<use x="110" y="70" xlink:href="#p" />
<use x="115" y="70" xlink:href="#p" />
<use x="120" y="70" xlink:href="#p" />
<use x="145" y="70" xlink:href="#p" />
<use x="15" y="75" xlink:href="#p" />
<use x="35" y="75" xlink:href="#p" />
<use x="45" y="75" xlink:href="#p" />
<use x="55" y="75" xlink:href="#p" />
<use x="60" y="75" xlink:href="#p" />
<use x="70" y="75" xlink:href="#p" />
<use x="85" y="75" xlink:href="#p" />
<use x="90" y="75" xlink:href="#p" />
<use x="95" y="75" xlink:href="#p" />
<use x="120" y="75" xlink:href="#p" />
<use x="130" y="75" xlink:href="#p" />
<use x="140" y="75" xlink:href="#p" />
<use x="145" y="75" xlink:href="#p" />
<use x="150" y="75" xlink:href="#p" />
<use x="10" y="80" xlink:href="#p" />
<use x="20" y="80" xlink:href="#p" />
<use x="30" y="80" xlink:href="#p" />
<use x="40" y="80" xlink:href="#p" />
<use x="55" y="80" xlink:href="#p" />
<use x="60" y="80" xlink:href="#p" />
<use x="70" y="80" xlink:href="#p" />
<use x="80" y="80" xlink:href="#p" />
<use x="95" y="80" xlink:href="#p" />
<use x="105" y="80" xlink:href="#p" />
<use x="125" y="80" xlink:href="#p" />
<use x="135" y="80" xlink:href="#p" />
<use x="150" y="80" xlink:href="#p" />
<use x="15" y="85" xlink:href="#p" />
<use x="20" y="85" xlink:href="#p" />
<use x="25" y="85" xlink:href="#p" />
<use x="30" y="85" xlink:href="#p" />
<use x="35" y="85" xlink:href="#p" />
<use x="45" y="85" xlink:href="#p" />
<use x="65" y="85" xlink:href="#p" />
<use x="70" y="85" xlink:href="#p" />
<use x="75" y="85" xlink:href="#p" />
<use x="100" y="85" xlink:href="#p" />
<use x="105" y="85" xlink:href="#p" />
<use x="115" y="85" xlink:href="#p" />
<use x="130" y="85" xlink:href="#p" />
<use x="135" y="85" xlink:href="#p" />
<use x="140" y="85" xlink:href="#p" />
<use x="30" y="90" xlink:href="#p" />
<use x="40" y="90" xlink:href="#p" />
<use x="45" y="90" xlink:href="#p" />
<use x="55" y="90" xlink:href="#p" />
<use x="60" y="90" xlink:href="#p" />
<use x="70" y="90" xlink:href="#p" />
<use x="75" y="90" xlink:href="#p" />
<use x="80" y="90" xlink:href="#p" />
<use x="105" y="90" xlink:href="#p" />
<use x="110" y="90" xlink:href="#p" />
<use x="125" y="90" xlink:href="#p" />
<use x="135" y="90" xlink:href="#p" />
<use x="150" y="90" xlink:href="#p" />
<use x="10" y="95" xlink:href="#p" />
<use x="30" y="95" xlink:href="#p" />
<use x="35" y="95" xlink:href="#p" />
<use x="50" y="95" xlink:href="#p" />
<use x="55" y="95" xlink:href="#p" />
<use x="65" y="95" xlink:href="#p" />
<use x="70" y="95" xlink:href="#p" />
<use x="75" y="95" xlink:href="#p" />
<use x="80" y="95" xlink:href="#p" />
<use x="90" y="95" xlink:href="#p" />
<use x="95" y="95" xlink:href="#p" />
<use x="100" y="95" xlink:href="#p" />
<use x="105" y="95" xlink:href="#p" />
<use x="110" y="95" xlink:href="#p" />
<use x="115" y="95" xlink:href="#p" />
<use x="130" y="95" xlink:href="#p" />
<use x="135" y="95" xlink:href="#p" />
<use x="10" y="100" xlink:href="#p" />
<use x="15" y="100" xlink:href="#p" />
<use x="25" y="100" xlink:href="#p" />
<use x="35" y="100" xlink:href="#p" />
<use x="40" y="100" xlink:href="#p" />
<use x="60" y="100" xlink:href="#p" />
<use x="65" y="100" xlink:href="#p" />
<use x="80" y="100" xlink:href="#p" />
<use x="85" y="100" xlink:href="#p" />
<use x="100" y="100" xlink:href="#p" />
<use x="105" y="100" xlink:href="#p" />
<use x="125" y="100" xlink:href="#p" />
<use x="130" y="100" xlink:href="#p" />
<use x="135" y="100" xlink:href="#p" />
<use x="140" y="100" xlink:href="#p" />
<use x="150" y="100" xlink:href="#p" />
<use x="10" y="105" xlink:href="#p" />
<use x="15" y="105" xlink:href="#p" />
<use x="20" y="105" xlink:href="#p" />
<use x="30" y="105" xlink:href="#p" />
<use x="45" y="105" xlink:href="#p" />
<use x="65" y="105" xlink:href="#p" />
<use x="80" y="105" xlink:href="#p" />
<use x="85" y="105" xlink:href="#p" />
<use x="90" y="105" xlink:href="#p" />
<use x="105" y="105" xlink:href="#p" />
<use x="110" y="105" xlink:href="#p" />
<use x="115" y="105" xlink:href="#p" />
<use x="120" y="105" xlink:href="#p" />
<use x="130" y="105" xlink:href="#p" />
<use x="140" y="105" xlink:href="#p" />
<use x="10" y="110" xlink:href="#p" />
<use x="15" y="110" xlink:href="#p" />
<use x="30" y="110" xlink:href="#p" />
<use x="35" y="110" xlink:href="#p" />
<use x="40" y="110" xlink:href="#p" />
<use x="45" y="110" xlink:href="#p" />
<use x="65" y="110" xlink:href="#p" />
<use x="90" y="110" xlink:href="#p" />
<use x="95" y="110" xlink:href="#p" />
<use x="110" y="110" xlink:href="#p" />
<use x="115" y="110" xlink:href="#p" />
<use x="120" y="110" xlink:href="#p" />
<use x="125" y="110" xlink:href="#p" />
<use x="130" y="110" xlink:href="#p" />
<use x="135" y="110" xlink:href="#p" />
<use x="140" y="110" xlink:href="#p" />
<use x="145" y="110" xlink:href="#p" />
<use x="150" y="110" xlink:href="#p" />
<use x="50" y="115" xlink:href="#p" />
<use x="65" y="115" xlink:href="#p" />
<use x="75" y="115" xlink:href="#p" />
<use x="80" y="115" xlink:href="#p" />
<use x="85" y="115" xlink:href="#p" />
<use x="95" y="115" xlink:href="#p" />
<use x="100" y="115" xlink:href="#p" />
<use x="110" y="115" xlink:href="#p" />
<use x="130" y="115" xlink:href="#p" />
<use x="135" y="115" xlink:href="#p" />
<use x="140" y="115" xlink:href="#p" />
<use x="10" y="120" xlink:href="#p" />
<use x="15" y="120" xlink:href="#p" />
<use x="20" y="120" xlink:href="#p" />
<use x="25" y="120" xlink:href="#p" />
<use x="30" y="120" xlink:href="#p" />
<use x="35" y="120" xlink:href="#p" />
<use x="40" y="120" xlink:href="#p" />
<use x="70" y="120" xlink:href="#p" />
<use x="75" y="120" xlink:href="#p" />
<use x="85" y="120" xlink:href="#p" />
<use x="90" y="120" xlink:href="#p" />
<use x="100" y="120" xlink:href="#p" />
<use x="105" y="120" xlink:href="#p" />
<use x="110" y="120" xlink:href="#p" />
<use x="120" y="120" xlink:href="#p" />
<use x="130" y="120" xlink:href="#p" />
<use x="140" y="120" xlink:href="#p" />
<use x="145" y="120" xlink:href="#p" />
<use x="10" y="125" xlink:href="#p" />
<use x="40" y="125" xlink:href="#p" />
<use x="50" y="125" xlink:href="#p" />
<use x="55" y="125" xlink:href="#p" />
<use x="65" y="125" xlink:href="#p" />
<use x="70" y="125" xlink:href="#p" />
<use x="75" y="125" xlink:href="#p" />
<use x="85" y="125" xlink:href="#p" />
<use x="90" y="125" xlink:href="#p" />
<use x="95" y="125" xlink:href="#p" />
<use x="100" y="125" xlink:href="#p" />
<use x="105" y="125" xlink:href="#p" />
<use x="110" y="125" xlink:href="#p" />
<use x="130" y="125" xlink:href="#p" />
<use x="135" y="125" xlink:href="#p" />
<use x="145" y="125" xlink:href="#p" />
<use x="150" y="125" xlink:href="#p" />
<use x="10" y="130" xlink:href="#p" />
<use x="20" y="130" xlink:href="#p" />
<use x="25" y="130" xlink:href="#p" />
<use x="30" y="130" xlink:href="#p" />
<use x="40" y="130" xlink:href="#p" />
<use x="50" y="130" xlink:href="#p" />
<use x="55" y="130" xlink:href="#p" />
<use x="60" y="130" xlink:href="#p" />
<use x="65" y="130" xlink:href="#p" />
<use x="75" y="130" xlink:href="#p" />
<use x="80" y="130" xlink:href="#p" />
<use x="90" y="130" xlink:href="#p" />
<use x="105" y="130" xlink:href="#p" />
<use x="110" y="130" xlink:href="#p" />
<use x="115" y="130" xlink:href="#p" />
<use x="120" y="130" xlink:href="#p" />
<use x="125" y="130" xlink:href="#p" />
<use x="130" y="130" xlink:href="#p" />
<use x="145" y="130" xlink:href="#p" />
<use x="10" y="135" xlink:href="#p" />
<use x="20" y="135" xlink:href="#p" />
<use x="25" y="135" xlink:href="#p" />
<use x="30" y="135" xlink:href="#p" />
<use x="40" y="135" xlink:href="#p" />
<use x="50" y="135" xlink:href="#p" />
<use x="65" y="135" xlink:href="#p" />
<use x="70" y="135" xlink:href="#p" />
<use x="85" y="135" xlink:href="#p" />
<use x="125" y="135" xlink:href="#p" />
<use x="150" y="135" xlink:href="#p" />
<use x="10" y="140" xlink:href="#p" />
<use x="20" y="140" xlink:href="#p" />
<use x="25" y="140" xlink:href="#p" />
<use x="30" y="140" xlink:href="#p" />
<use x="40" y="140" xlink:href="#p" />
<use x="55" y="140" xlink:href="#p" />
<use x="60" y="140" xlink:href="#p" />
<use x="75" y="140" xlink:href="#p" />
<use x="80" y="140" xlink:href="#p" />
<use x="85" y="140" xlink:href="#p" />
<use x="90" y="140" xlink:href="#p" />
<use x="100" y="140" xlink:href="#p" />
<use x="110" y="140" xlink:href="#p" />
<use x="115" y="140" xlink:href="#p" />
<use x="125" y="140" xlink:href="#p" />
<use x="130" y="140" xlink:href="#p" />
<use x="140" y="140" xlink:href="#p" />
<use x="145" y="140" xlink:href="#p" />
<use x="150" y="140" xlink:href="#p" />
<use x="10" y="145" xlink:href="#p" />
<use x="40" y="145" xlink:href="#p" />
<use x="50" y="145" xlink:href="#p" />
<use x="70" y="145" xlink:href="#p" />
<use x="90" y="145" xlink:href="#p" />
<use x="115" y="145" xlink:href="#p" />
<use x="120" y="145" xlink:href="#p" />
<use x="130" y="145" xlink:href="#p" />
<use x="135" y="145" xlink:href="#p" />
<use x="140" y="145" xlink:href="#p" />
<use x="150" y="145" xlink:href="#p" />
<use x="10" y="150" xlink:href="#p" />
<use x="15" y="150" xlink:href="#p" />
<use x="20" y="150" xlink:href="#p" />
<use x="25" y="150" xlink:href="#p" />
<use x="30" y="150" xlink:href="#p" />
<use x="35" y="150" xlink:href="#p" />
<use x="40" y="150" xlink:href="#p" />
<use x="60" y="150" xlink:href="#p" />
<use x="65" y="150" xlink:href="#p" />
<use x="70" y="150" xlink:href="#p" />
<use x="75" y="150" xlink:href="#p" />
<use x="85" y="150" xlink:href="#p" />
<use x="105" y="150" xlink:href="#p" />
<use x="110" y="150" xlink:href="#p" />
<use x="115" y="150" xlink:href="#p" />
<use x="120" y="150" xlink:href="#p" />
<use x="125" y="150" xlink:href="#p" />
<use x="130" y="150" xlink:href="#p" />
<use x="135" y="150" xlink:href="#p" />
</g>
</svg>