<svg xmlns="http://www.w3.org/2000/svg" width="370" height="370">
<g>
	<rect x="140" width="10" height="10"/>
	<rect x="200" width="10" height="10"/>
	<polygon points="250,10 250,0 220,0 220,10 210,10 210,20 230,20 230,10 	"/>
	<path d="M300,0v70h70V0H300z M360,60h-50V10h50V60z"/>
	<polygon points="130,20 130,10 110,10 110,0 100,0 100,10 80,10 80,20 110,20 110,30 120,30 120,20 	"/>
	<rect x="20" y="20" width="30" height="30"/>
	<rect x="200" y="20" width="10" height="10"/>
	<polygon points="240,50 250,50 250,40 260,40 260,50 280,50 280,40 290,40 290,0 270,0 270,10 280,10 280,30 250,30 250,20 230,20 
		230,30 240,30 	"/>
	<polygon points="130,30 120,30 120,40 110,40 110,50 130,50 	"/>
	<rect x="320" y="20" width="30" height="30"/>
	<polygon points="180,70 190,70 190,60 200,60 200,50 220,50 220,70 230,70 230,30 220,30 220,40 180,40 	"/>
	<path d="M70,0H0v70h70V0z M10,60V10h50v50H10z"/>
	<polygon points="170,40 180,40 180,0 170,0 170,10 150,10 150,20 160,20 160,70 170,70 	"/>
	<rect x="240" y="60" width="10" height="10"/>
	<rect x="260" y="60" width="10" height="10"/>
	<rect x="280" y="50" width="10" height="20"/>
	<polygon points="90,60 100,60 100,80 120,80 120,90 130,90 130,80 160,80 160,70 150,70 150,40 140,40 140,70 130,70 130,60 
		120,60 120,70 110,70 110,50 100,50 100,40 90,40 90,50 80,50 80,80 90,80 	"/>
	<rect x="230" y="70" width="10" height="10"/>
	<rect x="40" y="80" width="40" height="10"/>
	<polygon points="240,80 240,100 250,100 250,90 260,90 260,70 250,70 250,80 	"/>
	<rect x="270" y="80" width="20" height="10"/>
	<rect x="350" y="80" width="10" height="10"/>
	<rect x="100" y="90" width="10" height="10"/>
	<polygon points="150,90 150,100 170,100 170,90 190,90 190,80 160,80 160,90 	"/>
	<polygon points="310,90 320,90 320,80 300,80 300,100 310,100 	"/>
	<rect x="120" y="100" width="20" height="10"/>
	<rect x="160" y="110" width="20" height="10"/>
	<polygon points="210,100 230,100 230,90 220,90 220,80 210,80 210,60 200,60 200,100 190,100 190,110 200,110 200,130 210,130 	"/>
	<rect x="240" y="110" width="10" height="20"/>
	<rect x="360" y="110" width="10" height="20"/>
	<rect x="180" y="120" width="10" height="10"/>
	<rect x="320" y="130" width="10" height="10"/>
	<rect x="320" y="150" width="10" height="10"/>
	<polygon points="360,160 350,160 350,130 340,130 340,140 330,140 330,150 340,150 340,160 330,160 330,170 370,170 370,150 
		360,150 	"/>
	<polygon points="310,160 310,150 320,150 320,140 300,140 300,130 320,130 320,120 330,120 330,130 340,130 340,120 350,120 
		350,100 340,100 340,110 330,110 330,100 320,100 320,110 310,110 310,120 300,120 300,100 290,100 290,110 280,110 280,100 
		270,100 270,90 260,90 260,100 250,100 250,110 260,110 260,120 290,120 290,150 300,150 300,160 290,160 290,150 280,150 280,130 
		250,130 250,140 260,140 260,150 270,150 270,170 260,170 260,180 270,180 270,190 290,190 290,170 320,170 320,160 	"/>
	<path d="M50,170h20v10h10v10h10v20h10v-40H90v-10H50v-30H40v-10h10v10h20v10H60v10h20v-10h10v-10h10v-30H90V90H80v10H50v10H40V90
		H30v10H20V90H10v10H0v10h10v10h10v20H0v30h10v-10h20v10h10v10h10V170z M90,110v10H80v-10H90z M70,110v10H60v-10H70z"/>
	<rect x="170" y="170" width="10" height="20"/>
	<polygon points="240,170 250,170 250,160 200,160 200,150 240,150 240,140 220,140 220,130 210,130 210,140 180,140 180,130 
		170,130 170,140 160,140 160,130 150,130 150,150 170,150 170,160 180,160 180,150 190,150 190,160 180,160 180,170 190,170 
		190,200 180,200 180,210 170,210 170,230 160,230 160,260 170,260 170,250 180,250 180,270 190,270 190,260 200,260 200,250 
		190,250 190,230 180,230 180,220 190,220 190,210 200,210 200,220 220,220 220,210 210,210 210,180 220,180 220,170 230,170 
		230,180 220,180 220,200 250,200 250,190 260,190 260,180 240,180 	"/>
	<rect x="320" y="170" width="10" height="10"/>
	<rect y="180" width="20" height="10"/>
	<rect x="30" y="180" width="10" height="10"/>
	<rect x="50" y="180" width="20" height="10"/>
	<rect x="310" y="180" width="10" height="10"/>
	<rect x="20" y="190" width="10" height="40"/>
	<rect x="40" y="190" width="10" height="10"/>
	<rect x="290" y="190" width="10" height="10"/>
	<polygon points="350,190 350,180 340,180 340,200 330,200 330,210 320,210 320,220 350,220 350,200 360,200 360,190 	"/>
	<rect x="300" y="200" width="10" height="10"/>
	<polygon points="290,220 280,220 280,200 270,200 270,230 280,230 280,240 290,240 290,230 300,230 300,210 290,210 	"/>
	<rect y="200" width="10" height="30"/>
	<polygon points="90,210 80,210 80,190 70,190 70,200 60,200 60,210 70,210 70,220 60,220 60,230 90,230 	"/>
	<rect x="90" y="230" width="10" height="10"/>
	<polygon points="270,230 260,230 260,240 250,240 250,250 280,250 280,240 270,240 	"/>
	<rect x="310" y="230" width="10" height="10"/>
	<path d="M140,240h-10v-20h-10v-10h10v10h20v10h10v-20h10v-10h-10v-30h10v-10h-40v-10h10v-20h10v-10h-20v10h-10v-10h-10v10h-10v10
		H90v10h10v10h10v-20h10v20h-10v30h10v-20h10v30h-20v10h-10v20h20v10h-10v20h10v10h10v-10h10V240z M140,170h10v30h-10V170z"/>
	<rect x="200" y="240" width="10" height="10"/>
	<polygon points="230,250 240,250 240,240 250,240 250,220 260,220 260,210 240,210 240,220 230,220 230,230 210,230 210,240 
		230,240 	"/>
	<rect y="250" width="10" height="10"/>
	<polygon points="70,260 60,260 60,270 80,270 80,260 90,260 90,270 100,270 100,250 80,250 80,240 60,240 60,230 50,230 50,210 
		40,210 40,240 50,240 50,250 70,250 	"/>
	<polygon points="240,260 230,260 230,270 220,270 220,260 230,260 230,250 210,250 210,260 200,260 200,270 190,270 190,290 
		210,290 210,280 240,280 240,270 270,270 270,260 250,260 250,250 240,250 	"/>
	<polygon points="280,270 300,270 300,260 310,260 310,270 320,270 320,260 330,260 330,270 340,270 340,260 350,260 350,250 
		360,250 360,240 370,240 370,200 360,200 360,230 340,230 340,240 320,240 320,250 310,250 310,240 300,240 300,250 280,250 	"/>
	<polygon points="110,300 140,300 140,290 130,290 130,280 120,280 120,270 110,270 	"/>
	<polygon points="180,280 180,270 150,270 150,260 140,260 140,280 150,280 150,290 170,290 170,280 	"/>
	<path d="M300,280h-30v10h-10v10h-10v-20h-10v20h-10v10h10v10h-10v-10h-10v-20h-10v40h10v10h-30v-20h-20v-10h-10v10h-10v-10h-10v20
		h-30v20H90v20h10v-10h10v10h20v-10h-10v-20h30v10h10v-10h10v-10h10v20h30v10h10v-10h10v-20h20v-20h10v10h20v10h20v20h-10v20h20v-20
		h10v-20h30v-30h-10v-10h-10v-10h-20v-10h-10V280z M270,310v-10h10v10H270z M340,320h-10v-10h10V320z M320,290v30h-30v-30H320z"/>
	<rect x="350" y="270" width="10" height="10"/>
	<rect x="360" y="280" width="10" height="10"/>
	<rect x="170" y="290" width="10" height="10"/>
	<path d="M0,370h70v-70H0V370z M60,310v50H10v-50H60z"/>
	<rect x="100" y="300" width="10" height="10"/>
	<rect x="150" y="300" width="10" height="10"/>
	<rect x="300" y="300" width="10" height="10"/>
	<rect x="120" y="310" width="10" height="10"/>
	<polygon points="200,300 180,300 180,310 190,310 190,320 200,320 	"/>
	<polygon points="90,320 90,280 60,280 60,270 40,270 40,260 50,260 50,250 20,250 20,280 0,280 0,290 40,290 40,280 50,280 50,290 
		80,290 80,330 90,330 90,340 100,340 100,330 110,330 110,320 	"/>
	<rect x="360" y="320" width="10" height="10"/>
	<rect x="250" y="330" width="10" height="10"/>
	<rect x="20" y="320" width="30" height="30"/>
	<polygon points="280,340 280,330 270,330 270,360 280,360 280,350 290,350 290,340 	"/>
	<rect x="140" y="350" width="10" height="20"/>
	<polygon points="240,360 230,360 230,370 250,370 250,350 240,350 	"/>
	<polygon points="360,340 350,340 350,350 340,350 340,370 370,370 370,360 360,360 	"/>
	<polygon points="160,370 180,370 180,360 170,360 170,350 160,350 	"/>
	<rect x="190" y="360" width="20" height="10"/>
	<rect x="260" y="360" width="10" height="10"/>
	<rect x="320" y="350" width="10" height="20"/>
</g>
</svg>
